<svg xmlns="http://www.w3.org/2000/svg" xmlns:xlink="http://www.w3.org/1999/xlink" viewBox="0 0 852.5531 196.638"><defs><style>.cls-1{fill:none;}.cls-2{clip-path:url(#clip-path);}.cls-3{fill:url(#linear-gradient);}.cls-4{clip-path:url(#clip-path-2);}.cls-5{fill:url(#linear-gradient-2);}.cls-6{clip-path:url(#clip-path-3);}.cls-7{fill:url(#linear-gradient-3);}.cls-8{clip-path:url(#clip-path-4);}.cls-9{fill:url(#linear-gradient-4);}.cls-10{clip-path:url(#clip-path-5);}.cls-11{fill:url(#linear-gradient-5);}.cls-12{clip-path:url(#clip-path-6);}.cls-13{fill:url(#linear-gradient-6);}.cls-14{clip-path:url(#clip-path-7);}.cls-15{fill:url(#linear-gradient-7);}.cls-16{clip-path:url(#clip-path-8);}.cls-17{fill:url(#linear-gradient-8);}.cls-18{clip-path:url(#clip-path-9);}.cls-19{fill:url(#linear-gradient-9);}.cls-20{clip-path:url(#clip-path-10);}.cls-21{fill:url(#linear-gradient-10);}.cls-22{clip-path:url(#clip-path-11);}.cls-23{fill:url(#linear-gradient-11);}.cls-24{clip-path:url(#clip-path-12);}.cls-25{fill:url(#linear-gradient-12);}.cls-26{clip-path:url(#clip-path-13);}.cls-27{fill:url(#linear-gradient-13);}.cls-28{clip-path:url(#clip-path-14);}.cls-29{fill:url(#linear-gradient-14);}.cls-30{clip-path:url(#clip-path-15);}.cls-31{fill:url(#linear-gradient-15);}.cls-32{clip-path:url(#clip-path-16);}.cls-33{fill:url(#linear-gradient-16);}.cls-34{clip-path:url(#clip-path-17);}.cls-35{fill:url(#linear-gradient-17);}.cls-36{fill:#545759;}.cls-37{fill:#003d69;}</style><clipPath id="clip-path"><path class="cls-1" d="M46.8144,165.4067v-.0052a5.4933,5.4933,0,0,1-3.5935,2.2887,5.3358,5.3358,0,0,0-2.8177,1.12,5.3942,5.3942,0,0,0,3.1054,9.8583H43.57a5.8247,5.8247,0,0,0,1.5565-.2235,5.3938,5.3938,0,0,0,3.6423-3.5344,5.5517,5.5517,0,0,0-.1027-3.7116l.0026-.0026a5.4889,5.4889,0,0,1-.1079-4.2408l30.2967-52.1684L76.88,113.6363Z"/></clipPath><linearGradient id="linear-gradient" x1="148.6447" y1="543.2643" x2="151.2133" y2="543.2643" gradientTransform="matrix(15.7398, 0, 0, -15.7398, -2304.7227, 8697.0392)" gradientUnits="userSpaceOnUse"><stop offset="0" stop-color="#009844"/><stop offset="0.1895" stop-color="#069445"/><stop offset="0.4371" stop-color="#16874a"/><stop offset="0.7166" stop-color="#317250"/><stop offset="1" stop-color="#545759"/></linearGradient><clipPath id="clip-path-2"><path class="cls-1" d="M64.9206,160.385V160.38a5.48,5.48,0,0,1-2.8307,3.18h.0026a5.3531,5.3531,0,0,0-2.4068,1.8494,5.4212,5.4212,0,0,0,7.1767,7.9782,5.3966,5.3966,0,0,0,2.54-4.3975,5.5338,5.5338,0,0,0-1.1148-3.54l.0026-.0051a5.4861,5.4861,0,0,1-1.2638-4.0481l14.88-58.4667-2.2193-.5677Z"/></clipPath><linearGradient id="linear-gradient-2" x1="158.7387" y1="543.7517" x2="161.3073" y2="543.7517" gradientTransform="matrix(11.3543, 0, 0, -11.3543, -1756.3576, 6312.8239)" xlink:href="#linear-gradient"/><clipPath id="clip-path-3"><path class="cls-1" d="M74.7429,95.4377,81.0823,154.97l-.0026-.0051a5.4779,5.4779,0,0,1-1.5489,3.9659,5.4052,5.4052,0,0,0-1.6105,2.5712,5.4222,5.4222,0,0,0,9.5064,4.9831,5.3924,5.3924,0,0,0,.8477-5.0062,5.5281,5.5281,0,0,0-2.2758-2.9308l.0025-.0051a5.488,5.488,0,0,1-2.5917-3.3572L77.0213,95.1937Z"/></clipPath><linearGradient id="linear-gradient-3" x1="172.0727" y1="536.7955" x2="174.6413" y2="536.7955" gradientTransform="matrix(0, -8.4579, -8.4579, 0, 4621.964, 1611.6706)" xlink:href="#linear-gradient"/><clipPath id="clip-path-4"><path class="cls-1" d="M70.7051,104.844l24.6227,40.1088h-.0052a5.4681,5.4681,0,0,1,.298,4.246,5.3994,5.3994,0,0,0-.3545,3.0129,5.4217,5.4217,0,0,0,10.724.4367,5.3924,5.3924,0,0,0-1.3768-4.8855,5.5033,5.5033,0,0,0-3.3109-1.6773V146.08a5.5063,5.5063,0,0,1-3.781-1.9238l-24.859-40.5045Z"/></clipPath><linearGradient id="linear-gradient-4" x1="186.7246" y1="517.4604" x2="189.2932" y2="517.4604" gradientTransform="matrix(0, -6.1004, -6.1004, 0, 3245.2432, 1286.6115)" xlink:href="#linear-gradient"/><clipPath id="clip-path-5"><path class="cls-1" d="M67.2323,107.5564,115.011,143.63h-.0051a5.4859,5.4859,0,0,1,1.8365,3.84,5.3741,5.3741,0,0,0,.7732,2.9333,5.4216,5.4216,0,0,0,10.1357-3.5293,5.3908,5.3908,0,0,0-3.0746-4.04,5.5313,5.5313,0,0,0-3.6962-.3442l-.0026-.0025a5.4906,5.4906,0,0,1-4.22-.4059L68.6117,105.73Z"/></clipPath><linearGradient id="linear-gradient-5" x1="160.4529" y1="511.461" x2="163.0215" y2="511.461" gradientTransform="matrix(0, -10.9443, -10.9443, 0, 5695.397, 1909.1264)" gradientUnits="userSpaceOnUse"><stop offset="0" stop-color="#a22929"/><stop offset="0.197" stop-color="#9c2d2d"/><stop offset="0.4627" stop-color="#8b3737"/><stop offset="0.7662" stop-color="#6f4749"/><stop offset="1" stop-color="#545759"/></linearGradient><clipPath id="clip-path-6"><path class="cls-1" d="M61.3784,110.8442l50.8483,13.9219-.0052.0026a5.5083,5.5083,0,0,1,3.1311,2.8871,5.3618,5.3618,0,0,0,1.8032,2.4376,5.4212,5.4212,0,0,0,8.1065-7.0328,5.4013,5.4013,0,0,0-4.3512-2.6174,5.5277,5.5277,0,0,0-3.56,1.0531l-.0025-.0052a5.4985,5.4985,0,0,1-4.0713,1.1893L61.9846,108.6353Z"/></clipPath><linearGradient id="linear-gradient-6" x1="161.754" y1="489.0882" x2="164.3226" y2="489.0882" gradientTransform="matrix(0, -6.9237, -6.9237, 0, 3480.63, 1260.5847)" xlink:href="#linear-gradient-5"/><clipPath id="clip-path-7"><path class="cls-1" d="M118.2578,93.9094a5.5332,5.5332,0,0,0-2.3015,2.9128h-.0052a5.4846,5.4846,0,0,1-2.6379,3.3186L65.64,117.3916l.7834,2.1525L113.66,102.4526l-.0025.0026a5.4913,5.4913,0,0,1,4.2228.5522,5.3644,5.3644,0,0,0,2.8794.95,5.4219,5.4219,0,0,0,2.5609-10.4234,5.3959,5.3959,0,0,0-5.0627.375"/></clipPath><linearGradient id="linear-gradient-7" x1="133.8598" y1="483.1626" x2="136.4284" y2="483.1626" gradientTransform="matrix(-7.3965, 0, 0, 7.3965, 1106.2325, -3467.4185)" xlink:href="#linear-gradient-5"/><clipPath id="clip-path-8"><path class="cls-1" d="M120.7724,68.4185a5.3906,5.3906,0,0,0-4.4154,2.34,5.54,5.54,0,0,0-.9684,3.5832l-.0026.0026a5.5,5.5,0,0,1-1.1122,4.0918L70.2787,119.7214l1.5668,1.667,43.6561-40.9668-.0025.0052a5.5013,5.5013,0,0,1,4.0969-1.1585,5.3773,5.3773,0,0,0,3.0233-.2645A5.4208,5.4208,0,0,0,120.86,68.4185h-.0874"/></clipPath><linearGradient id="linear-gradient-8" x1="125.1041" y1="503.2746" x2="127.6727" y2="503.2746" gradientTransform="matrix(-12.4518, 0, 0, 12.4518, 1680.4838, -6171.759)" xlink:href="#linear-gradient-5"/><clipPath id="clip-path-9"><path class="cls-1" d="M117.9059,38.6432a5.4088,5.4088,0,0,0-3.6706,3.5087,5.5436,5.5436,0,0,0,.08,3.7116l-.0051.0026a5.4981,5.4981,0,0,1,.0771,4.2408L83.71,102.057l1.9676,1.1611,30.4457-51.55v.0051a5.4926,5.4926,0,0,1,3.6089-2.26,5.3773,5.3773,0,0,0,2.8255-1.0994,5.3957,5.3957,0,0,0-3.108-9.8815,5.8117,5.8117,0,0,0-1.5437.2107"/></clipPath><linearGradient id="linear-gradient-9" x1="125.974" y1="515.2646" x2="128.5426" y2="515.2646" gradientTransform="matrix(-20.9272, 0, 0, 20.9272, 2764.4291, -10712.1984)" xlink:href="#linear-gradient-5"/><clipPath id="clip-path-10"><path class="cls-1" d="M111.5049,11.1873a5.6775,5.6775,0,0,0-2.4864.6242,5.4021,5.4021,0,0,0-2.8974,4.1714,5.5271,5.5271,0,0,0,.8142,3.6192l-.0026.0051a5.4929,5.4929,0,0,1,.92,4.1406l-27.4764,79.36,2.1628.7475,27.3248-78.9232.0026.0052a5.494,5.494,0,0,1,3.0875-2.9334,5.3412,5.3412,0,0,0,2.548-1.6413,5.5356,5.5356,0,0,0,1.5412-4.3307,5.5074,5.5074,0,0,0-5.3812-4.8444Z"/></clipPath><linearGradient id="linear-gradient-10" x1="127.43" y1="520.2412" x2="129.9986" y2="520.2412" gradientTransform="matrix(-29.3145, 0, 0, 29.3145, 3870.1862, -15193.1019)" xlink:href="#linear-gradient-5"/><clipPath id="clip-path-11"><path class="cls-1" d="M81.3751,33.9221a5.3984,5.3984,0,0,0-1.816,4.7416,5.5193,5.5193,0,0,0,1.6567,3.3213l-.0025.0051a5.4944,5.4944,0,0,1,1.88,3.8015l-5.5277,60.0747,2.2809.2106L85.3333,46.462v.0026A5.4924,5.4924,0,0,1,87.63,42.8814v-.0026a5.3547,5.3547,0,0,0,2.0858-2.2039,5.4374,5.4374,0,0,0-8.34-6.7528"/></clipPath><linearGradient id="linear-gradient-11" x1="120.4393" y1="520.0194" x2="123.0079" y2="520.0194" gradientTransform="matrix(-19.1137, 0, 0, 19.1137, 2410.9839, -9870.1971)" gradientUnits="userSpaceOnUse"><stop offset="0" stop-color="#446ba8"/><stop offset="0.0282" stop-color="#446ba8"/><stop offset="0.0319" stop-color="#446ba8"/><stop offset="0.3029" stop-color="#456aa5"/><stop offset="0.5047" stop-color="#47689c"/><stop offset="0.6839" stop-color="#4a648b"/><stop offset="0.8492" stop-color="#4e5e75"/><stop offset="1" stop-color="#545759"/></linearGradient><clipPath id="clip-path-12"><path class="cls-1" d="M63.7929,55.7861a5.397,5.397,0,0,0-.5188,5.05,5.5449,5.5449,0,0,0,2.4633,2.7792l-.0026.0026a5.4871,5.4871,0,0,1,2.8075,3.18l10.29,59.4454,2.2552-.3905-10.21-58.9907.0025.0052a5.4809,5.4809,0,0,1,1.2843-4.0584,5.3923,5.3923,0,0,0,1.441-2.6714,5.4363,5.4363,0,0,0-9.8121-4.3512"/></clipPath><linearGradient id="linear-gradient-12" x1="108.1754" y1="521.932" x2="110.744" y2="521.932" gradientTransform="matrix(0, 11.7212, 11.7212, 0, -6045.8388, -1203.4246)" xlink:href="#linear-gradient-11"/><clipPath id="clip-path-13"><path class="cls-1" d="M33.8352,71.11a5.3907,5.3907,0,0,0,2.2219,4.5644,5.5332,5.5332,0,0,0,3.56,1.0609v.0025a5.51,5.51,0,0,1,4.061,1.22L83.7947,123.02l1.7107-1.5207L45.6971,76.7819l.0025.0026a5.5058,5.5058,0,0,1-1.05-4.1278,5.3452,5.3452,0,0,0-.1875-3.0284A5.4269,5.4269,0,0,0,33.8352,71.11"/></clipPath><linearGradient id="linear-gradient-13" x1="108.9581" y1="537.2496" x2="111.5267" y2="537.2496" gradientTransform="matrix(0, 11.4922, 11.4922, 0, -6114.5383, -1181.3356)" xlink:href="#linear-gradient-11"/><clipPath id="clip-path-14"><path class="cls-1" d="M17.4706,82.9363v.1849a5.7976,5.7976,0,0,0,.2363,1.5335,5.3976,5.3976,0,0,0,3.5678,3.6115,5.5423,5.5423,0,0,0,3.7117-.1362l.0025.0026a5.4976,5.4976,0,0,1,4.2382-.1464l52.4434,29.8267,1.13-1.9907-52.04-29.5955h.0051a5.5036,5.5036,0,0,1-2.3194-3.573,5.3959,5.3959,0,0,0-1.1456-2.81,5.5445,5.5445,0,0,0-3.9762-2.304c-.1207-.0077-.2389-.01-.3571-.01a5.503,5.503,0,0,0-5.4968,5.4069"/></clipPath><linearGradient id="linear-gradient-14" x1="117.9718" y1="541.7305" x2="120.5404" y2="541.7305" gradientTransform="matrix(0, 14.2359, 14.2359, 0, -7661.8729, -1606.6649)" xlink:href="#linear-gradient-11"/><clipPath id="clip-path-15"><path class="cls-1" d="M22.7029,102.2291a4.6826,4.6826,0,0,0-1.3229.2569,5.5139,5.5139,0,0,0-2.3939,8.7461,5.4058,5.4058,0,0,0,4.6954,1.929,5.536,5.536,0,0,0,3.3623-1.5745l.0052.0025a5.479,5.479,0,0,1,3.8426-1.7877l59.9257,6.9815.2671-2.2758L31.616,107.58l.0051-.0026a5.4751,5.4751,0,0,1-3.5267-2.3811h-.0026a5.3493,5.3493,0,0,0-2.15-2.14,6.0773,6.0773,0,0,0-2.71-.8271Z"/></clipPath><linearGradient id="linear-gradient-15" x1="121.302" y1="554.8446" x2="123.8706" y2="554.8446" gradientTransform="matrix(0, 10.5374, 10.5374, 0, -5792.8656, -1192.5542)" xlink:href="#linear-gradient-11"/><clipPath id="clip-path-16"><path class="cls-1" d="M37.9733,125.7705l.0025-.0052a5.488,5.488,0,0,1-4.1971-.7038,5.3661,5.3661,0,0,0-2.846-1.0531,5.4211,5.4211,0,0,0-2.9359,10.3232,5.384,5.384,0,0,0,5.07-.1926,5.5221,5.5221,0,0,0,2.4068-2.8281h.0051a5.48,5.48,0,0,1,2.7587-3.221l57.4239-18.4991-.7038-2.1808Z"/></clipPath><linearGradient id="linear-gradient-16" x1="132.9892" y1="563.8212" x2="135.5578" y2="563.8212" gradientTransform="matrix(8.8156, 0, 0, -8.8156, -1136.6533, 5091.678)" xlink:href="#linear-gradient"/><clipPath id="clip-path-17"><path class="cls-1" d="M44.0634,141.8088l.0026-.0051a5.4953,5.4953,0,0,1-4.1432.9838v.0026a5.3359,5.3359,0,0,0-3.0309.1361,5.42,5.42,0,0,0,1.3074,10.65,5.3968,5.3968,0,0,0,4.6-2.1474,5.5322,5.5322,0,0,0,1.1173-3.5421h.0052a5.5,5.5,0,0,1,1.2868-4.043l45.7059-39.3794L89.42,102.73Z"/></clipPath><linearGradient id="linear-gradient-17" x1="147.0572" y1="558.1922" x2="149.6259" y2="558.1922" gradientTransform="matrix(9.7828, 0, 0, -9.7828, -1401.0759, 5588.9074)" xlink:href="#linear-gradient"/></defs><title>Asset 1</title><g id="Layer_2" data-name="Layer 2"><g id="Layer_2-2" data-name="Layer 2"><g class="cls-2"><rect class="cls-3" x="19.9135" y="111.9493" width="76.8602" height="68.4062" transform="translate(-97.164 122.0299) rotate(-59.4208)"/></g><g class="cls-4"><rect class="cls-5" x="31.6787" y="118.1948" width="76.7401" height="41.4539" transform="translate(-82.081 171.5195) rotate(-75.3355)"/></g><g class="cls-6"><rect class="cls-7" x="71.1623" y="94.6847" width="21.2681" height="75.4563" transform="translate(-12.4708 8.5681) rotate(-5.5722)"/></g><g class="cls-8"><rect class="cls-9" x="59.2427" y="98.3612" width="58.6001" height="65.1006" transform="translate(-54.6391 64.0041) rotate(-30.8811)"/></g><g class="cls-10"><rect class="cls-11" x="60.0778" y="90.9087" width="75.4393" height="77.8352" transform="translate(-64.7366 128.4484) rotate(-52.5237)"/></g><g class="cls-12"><rect class="cls-13" x="74.7824" y="85.3349" width="39.1052" height="69.6052" transform="translate(-45.9422 180.5893) rotate(-75.1735)"/></g><g class="cls-14"><rect class="cls-15" x="62.947" y="82.5899" width="67.4432" height="47.4389" transform="translate(-32.3246 43.0064) rotate(-21.58)"/></g><g class="cls-16"><rect class="cls-17" x="59.8843" y="56.0435" width="77.8376" height="77.7199" transform="translate(-38.1959 94.8656) rotate(-43.8309)"/></g><g class="cls-18"><rect class="cls-19" x="66.0251" y="36.6623" width="76.845" height="68.3261" transform="translate(-9.1355 125.8198) rotate(-59.9762)"/></g><g class="cls-20"><rect class="cls-21" x="49.0085" y="25.2177" width="99.5917" height="64.607" transform="translate(12.6564 132.6845) rotate(-71.3112)"/></g><g class="cls-22"><rect class="cls-23" x="46.956" y="59.5901" width="74.3915" height="19.442" transform="translate(7.8655 147.1954) rotate(-85.0702)"/></g><g class="cls-24"><rect class="cls-25" x="56.4994" y="52.2739" width="30.6795" height="75.013" transform="translate(-14.2778 13.5882) rotate(-9.8336)"/></g><g class="cls-26"><rect class="cls-27" x="21.2905" y="55.7994" width="76.6826" height="77.1755" transform="translate(-47.5063 62.9815) rotate(-41.3786)"/></g><g class="cls-28"><rect class="cls-29" x="16.3351" y="59.3101" width="67.6011" height="76.7222" transform="translate(-59.5104 92.1051) rotate(-59.922)"/></g><g class="cls-30"><rect class="cls-31" x="42.3615" y="71.6141" width="22.8226" height="75.784" transform="translate(-61.0683 150.6718) rotate(-83.5674)"/></g><g class="cls-32"><rect class="cls-33" x="21.3517" y="97.3721" width="76.8042" height="47.7835" transform="matrix(0.9549, -0.2969, 0.2969, 0.9549, -33.314, 23.2137)"/></g><g class="cls-34"><rect class="cls-35" x="22.4339" y="89.5868" width="77.9559" height="77.2374" transform="translate(-69.4221 72.6128) rotate(-41.3839)"/></g><path class="cls-36" d="M97.6842,118.5581l.7757.0642a1.6716,1.6716,0,0,1-.8014-.4778,1.9509,1.9509,0,0,1-.4084-1.5c.0514-.46.1618-1.6336.1618-2.4709a19.4484,19.4484,0,0,0-.4418-4.12,1.6652,1.6652,0,0,1,.3725-1.4872,1.6349,1.6349,0,0,1,.7911-.4906l-.542.0308-1.0891.18q-.2542-.8014-.5753-1.5694l.637-.3828.6987-.37a1.64,1.64,0,0,1-.9273.0693,1.8325,1.8325,0,0,1-1.2-.994c-.2722-.4881-1.3177-2.1577-1.3177-2.1577a1.5223,1.5223,0,0,1-.3082-1.5206,1.7431,1.7431,0,0,1,.5035-.7808l-.4341.3-.9145.5548q-.5431-.6318-1.143-1.2175l.4906-.8091.4367-.48a1.64,1.64,0,0,1-2.281.08c-.1-.08-.2029-.1567-.303-.2363a1.6448,1.6448,0,0,1-.5574-1.2253,1.9652,1.9652,0,0,1,.27-.9478l-.447.5291-.5907.6987c-.48-.3159-.9736-.6113-1.4821-.881l.3313-.8014.2286-.6961a2.2439,2.2439,0,0,1-.6447.7063.8994.8994,0,0,1-.9247.0925.8412.8412,0,0,1-.4726-.7475,2.0412,2.0412,0,0,1,.1823-.9452l-.2979.4392-.5446.971q-.7359-.2852-1.4975-.5112l.1773-1.1456-.0411-.3519a2.1091,2.1091,0,0,1-.3648.6935,1.2445,1.2445,0,0,1-1.2432.4162,1.1361,1.1361,0,0,1-.85-.7039,2.4376,2.4376,0,0,1-.0719-1.0993l-.3057.0462L80.5541,94.84c-.5522-.0771-1.11-.1336-1.6747-.1618l.0873-1.5848-.2337.2a1.5216,1.5216,0,0,1-.28.768,1.9152,1.9152,0,0,1-2.4787.2774,1.7942,1.7942,0,0,1-.5086-.9221l-.02.3314L75.44,94.8113c-.5625.0719-1.1173.1643-1.6644.2825l-.4033-.691-.1772-.7371a1.5315,1.5315,0,0,1-.0437.8964c-.1464.3956-.3108.7526-.7218.8656-.0976.0283-.2414.0745-.339.1028a19.4434,19.4434,0,0,0-5.3376,2.62,1.5294,1.5294,0,0,1-1.5514.2544,2.9988,2.9988,0,0,1-.7347-.5292l.0822.29.7783,1.0762c-.4315.3622-.85.74-1.2483,1.1405l-1.0146-1.11-.185.2518a1.4067,1.4067,0,0,1,.4187.75,1.6562,1.6562,0,0,1-.4033,1.4076c-.2209.2646-.4392.5343-.6447.8117a1.6545,1.6545,0,0,1-1.2406.5856,1.7965,1.7965,0,0,1-.95-.1875l.4264.27.83.6987c-.298.4777-.5728.9683-.83,1.4718l-.5805-.054-.85-.3236a1.3982,1.3982,0,0,1,.7911,1.7544,19.1888,19.1888,0,0,0-.9016,2.72,1.6545,1.6545,0,0,1-.8656.9787,1.4024,1.4024,0,0,1-.8374.1669l.4033.167.9786.2414c-.0924.5523-.1592,1.1148-.2029,1.6825l-.786.1181-.8322.0231a1.656,1.656,0,0,1,1.5617,1.703h.0026a19.3157,19.3157,0,0,0,.3339,3.293,1.639,1.639,0,0,1-.4341,1.2483,1.5932,1.5932,0,0,1-.7346.4187l.8707-.1233.6576.0154c.1516.542.3185,1.0763.5137,1.5977l-.5907.316-.7475.3621a1.62,1.62,0,0,1,.92-.0128,1.6441,1.6441,0,0,1,1.0248.7783,19.2842,19.2842,0,0,0,1.5078,2.6688,1.6323,1.6323,0,0,1-.375,1.8725l.5214-.4033.6576-.3724Q63,126.82,63.56,127.43l-.5343.7706-.4418.6576a1.9212,1.9212,0,0,1,.7912-.4855,1.6367,1.6367,0,0,1,1.4.2646c.4212.38.863.7423,1.3151,1.0891a1.6423,1.6423,0,0,1,.5368,1.2226,1.0228,1.0228,0,0,1-.2.6936l.4649-.3417.5266-.6524q.7089.4507,1.4564.8425l-.2723.7526-.226.6113a1.4276,1.4276,0,0,1,.637-.5779,1.6664,1.6664,0,0,1,1.1661-.1644,3.3312,3.3312,0,0,1,.4881.1927,1.5794,1.5794,0,0,1,.9375,1.0865,1.3053,1.3053,0,0,1,.0051.73l.3006-.6961.375-.5471c.5368.1618,1.0788.3031,1.6311.4161l-.1182.6293v.84a1.8647,1.8647,0,0,1,.4649-.7423,1.6483,1.6483,0,0,1,1.3408-.46q.8477.1,1.7184.1233a1.6586,1.6586,0,0,1,1.3794.7089,1.5931,1.5931,0,0,1,.28.8143v-.9119l.1849-.6447c.5651-.0359,1.125-.0925,1.6773-.1772l.2106.5111.1978.9427a1.8789,1.8789,0,0,1,.1618-.9016,1.6615,1.6615,0,0,1,1.1893-.9092c.3622-.09.7218-.1876,1.0737-.298a19.5538,19.5538,0,0,0,2.0266-.76l.0026.0025a1.6452,1.6452,0,0,1,1.5514.0309,1.2094,1.2094,0,0,1,.4932.5137l-.1336-.6833-.2594-.6858c.488-.27.9658-.56,1.4256-.8707l.4726.7372.4649.3416a1.4824,1.4824,0,0,1-.1669-.8066,1.6653,1.6653,0,0,1,.714-1.3767l-.0025-.0026a19.441,19.441,0,0,0,1.4461-1.3126,1.6539,1.6539,0,0,1,2.2912-.1849l-.3519-.5574-.7064-.6139c.3571-.4315.691-.881,1.01-1.3434l.9093.4649.5188.2312a1.647,1.647,0,0,1-.4649-2.2372,19.5355,19.5355,0,0,0,.935-1.888h.0051a1.7116,1.7116,0,0,1,1.1662-1.02,1.64,1.64,0,0,1,.7115,0l-.4855-.28-.7552-.4315c.17-.5291.3134-1.0711.4367-1.6182Z"/><path class="cls-37" d="M588.6951,118.0072V105.51h3.1441c2.7854,0,4.4278,1.0524,4.4278,3.32,0,2.213-1.5535,3.3737-4.4278,3.3737h-1.8929v5.8034Zm1.2512-11.3918v4.4827h1.8929c2.0353,0,3.1426-.805,3.1426-2.268,0-1.4824-1.1607-2.2147-3.1426-2.2147Z"/><polygon class="cls-37" points="606.925 116.9 606.925 118.007 598.962 118.007 598.962 105.51 606.711 105.51 606.711 106.615 600.211 106.615 600.211 110.956 606.283 110.956 606.283 112.062 600.211 112.062 600.211 116.9 606.925 116.9"/><path class="cls-37" d="M613.4216,112.1689h-2.3925v5.8389h-1.2512V105.5087h3.34c2.7852,0,4.4293,1.0362,4.4293,3.3026a3.09,3.09,0,0,1-2.8047,3.2153l3.5353,5.9812h-1.3918Zm-2.3925-1.1074h2.0886c2.0352,0,3.1425-.7856,3.1425-2.25,0-1.4824-1.1607-2.1953-3.1425-2.1953h-2.0886Z"/><polygon class="cls-37" points="619.535 105.509 629.176 105.509 629.176 106.615 624.981 106.615 624.981 118.008 623.73 118.008 623.73 106.615 619.535 106.615 619.535 105.509"/><polygon class="cls-37" points="631.764 118.007 631.764 105.508 633.014 105.508 633.014 110.972 639.869 110.972 639.869 105.508 641.121 105.508 641.121 118.007 639.869 118.007 639.869 112.079 633.014 112.079 633.014 118.007 631.764 118.007"/><polygon class="cls-37" points="660.093 116.579 660.093 105.509 661.344 105.509 661.344 118.008 659.647 118.008 652.183 106.956 652.147 106.956 652.147 118.008 650.898 118.008 650.898 105.509 652.594 105.509 660.057 116.579 660.093 116.579"/><path class="cls-37" d="M670.9659,118.2218a6.4639,6.4639,0,1,1,6.41-6.4645,6.2648,6.2648,0,0,1-6.41,6.4645m0-11.7846a5.3246,5.3246,0,1,0,5.1244,5.32,5.0842,5.0842,0,0,0-5.1244-5.32"/><path class="cls-37" d="M684.2407,112.1689h-2.3924v5.8389H680.597V105.5087h3.34c2.7853,0,4.4277,1.0362,4.4277,3.3026a3.0888,3.0888,0,0,1-2.803,3.2153l3.5353,5.9812H687.705Zm-2.3924-1.1074h2.0885c2.0368,0,3.1425-.7856,3.1425-2.25,0-1.4824-1.1607-2.1953-3.1425-2.1953h-2.0885Z"/><polygon class="cls-37" points="690.355 105.509 699.996 105.509 699.996 106.615 695.799 106.615 695.799 118.008 694.549 118.008 694.549 106.615 690.355 106.615 690.355 105.509"/><polygon class="cls-37" points="702.583 118.007 702.583 105.508 703.833 105.508 703.833 110.972 710.689 110.972 710.689 105.508 711.94 105.508 711.94 118.007 710.689 118.007 710.689 112.079 703.833 112.079 703.833 118.007 702.583 118.007"/><polygon class="cls-37" points="714.808 120.506 716.057 116.312 717.342 116.312 716.022 120.506 714.808 120.506"/><path class="cls-37" d="M726.7661,118.0072V105.51h3.1425c2.7853,0,4.4277,1.0524,4.4277,3.32,0,2.213-1.5535,3.3737-4.4277,3.3737h-1.8929v5.8034Zm1.25-11.3918v4.4827h1.8929c2.0352,0,3.1426-.805,3.1426-2.268,0-1.4824-1.1607-2.2147-3.1426-2.2147Z"/><polygon class="cls-37" points="744.996 116.9 744.996 118.007 737.031 118.007 737.031 105.51 744.781 105.51 744.781 106.615 738.282 106.615 738.282 110.956 744.352 110.956 744.352 112.062 738.282 112.062 738.282 116.9 744.996 116.9"/><path class="cls-37" d="M751.4909,112.1689h-2.3924v5.8389h-1.2513V105.5087h3.3414c2.7853,0,4.4277,1.0362,4.4277,3.3026a3.09,3.09,0,0,1-2.8046,3.2153l3.5352,5.9812h-1.3917Zm-2.3924-1.1074h2.09c2.0336,0,3.1409-.7856,3.1409-2.25,0-1.4824-1.1607-2.1953-3.1409-2.1953h-2.09Z"/><polygon class="cls-37" points="757.605 105.509 767.246 105.509 767.246 106.615 763.051 106.615 763.051 118.008 761.801 118.008 761.801 106.615 757.605 106.615 757.605 105.509"/><polygon class="cls-37" points="769.833 118.007 769.833 105.508 771.085 105.508 771.085 110.972 777.94 110.972 777.94 105.508 779.19 105.508 779.19 118.007 777.94 118.007 777.94 112.079 771.085 112.079 771.085 118.007 769.833 118.007"/><path class="cls-37" d="M794.645,107.2944a3.5812,3.5812,0,0,0-2.5169-.8568c-1.5357,0-2.6076.91-2.6076,2.0886,0,1.5357,1.3224,1.9641,2.6787,2.6236,1.7491.8584,3.5353,1.4646,3.5353,3.8765,0,1.7313-1.429,3.1942-3.7859,3.1942a5.51,5.51,0,0,1-3.9621-1.6068l.8567-.7485a4.2943,4.2943,0,0,0,3.1054,1.2141c1.5551,0,2.4992-.91,2.4992-2.053,0-1.6424-1.4985-2.1969-2.8193-2.84-1.6618-.82-3.3931-1.4824-3.3931-3.66,0-1.8219,1.589-3.2315,3.8927-3.2315a4.804,4.804,0,0,1,3.34,1.214Z"/><path class="cls-37" d="M804.2885,118.2218a6.4639,6.4639,0,1,1,6.408-6.4645,6.2653,6.2653,0,0,1-6.408,6.4645m0-11.7846a5.3246,5.3246,0,1,0,5.1244,5.32,5.0833,5.0833,0,0,0-5.1244-5.32"/><path class="cls-37" d="M815.0145,105.509v7.7676c0,1.589.7144,3.8037,3.3914,3.8037,2.6786,0,3.3932-2.2147,3.3932-3.8037V105.509h1.25v7.7676c0,2.0708-.9279,4.9449-4.6428,4.9449-3.7116,0-4.641-2.8741-4.641-4.9449V105.509Z"/><polygon class="cls-37" points="825.565 105.509 835.207 105.509 835.207 106.615 831.011 106.615 831.011 118.008 829.761 118.008 829.761 106.615 825.565 106.615 825.565 105.509"/><polygon class="cls-37" points="837.794 118.007 837.794 105.508 839.044 105.508 839.044 110.972 845.901 110.972 845.901 105.508 847.151 105.508 847.151 118.007 845.901 118.007 845.901 112.079 839.044 112.079 839.044 118.007 837.794 118.007"/><polygon class="cls-37" points="850.018 120.506 851.268 116.312 852.553 116.312 851.232 120.506 850.018 120.506"/><path class="cls-37" d="M598.8019,137.3546a5.3932,5.3932,0,0,1-4.6056,2.2857,6.4631,6.4631,0,0,1,0-12.9258,5.4031,5.4031,0,0,1,4.3744,1.9463l-.9295.66a4.2485,4.2485,0,0,0-3.4449-1.463,5.3237,5.3237,0,0,0,0,10.64,4.281,4.281,0,0,0,3.66-1.7846Z"/><path class="cls-37" d="M606.8493,139.6411a6.4639,6.4639,0,1,1,6.4111-6.4645,6.2649,6.2649,0,0,1-6.4111,6.4645m0-11.7846a5.3246,5.3246,0,1,0,5.1244,5.32,5.0851,5.0851,0,0,0-5.1244-5.32"/><path class="cls-37" d="M617.5759,126.9277v7.7675c0,1.5891.7144,3.8037,3.3914,3.8037,2.6786,0,3.3948-2.2146,3.3948-3.8037v-7.7675h1.248v7.7675c0,2.0724-.9279,4.945-4.6428,4.945-3.7131,0-4.641-2.8726-4.641-4.945v-7.7675Z"/><polygon class="cls-37" points="638.721 137.998 638.721 126.928 639.97 126.928 639.97 139.427 638.273 139.427 630.809 128.375 630.774 128.375 630.774 139.427 629.524 139.427 629.524 126.928 631.22 126.928 638.684 137.998 638.721 137.998"/><polygon class="cls-37" points="642.565 126.928 652.207 126.928 652.207 128.035 648.011 128.035 648.011 139.427 646.761 139.427 646.761 128.035 642.565 128.035 642.565 126.928"/><path class="cls-37" d="M658.4364,133.5885h-2.3925v5.8373h-1.25V126.9283h3.3382c2.7869,0,4.4293,1.0347,4.4293,3.3043a3.0871,3.0871,0,0,1-2.8047,3.212l3.537,5.9812h-1.3935Zm-2.3925-1.1073h2.0886c2.0352,0,3.1425-.7857,3.1425-2.2486,0-1.4824-1.1607-2.1969-3.1425-2.1969h-2.0886Z"/><polygon class="cls-37" points="669.005 139.426 669.005 134.177 664.236 126.927 665.665 126.927 669.611 132.981 669.648 132.981 673.593 126.927 675.022 126.927 670.255 134.177 670.255 139.426 669.005 139.426"/><polygon class="cls-37" points="682.211 126.928 683.514 126.928 686.621 137.838 686.657 137.838 689.817 126.928 691.459 126.928 694.602 137.82 694.639 137.82 697.71 126.928 699.012 126.928 695.459 139.427 693.798 139.427 690.656 128.536 690.62 128.536 687.46 139.427 685.8 139.427 682.211 126.928"/><path class="cls-37" d="M700.7739,139.4252h-1.3045l5.4105-12.4975h1.3223l5.3556,12.4975h-1.3223l-1.41-3.3188h-6.623Zm4.7478-10.9974-2.837,6.57h5.6595l-2.7854-6.57Z"/><path class="cls-37" d="M593.009,55.0926c-5.9779,0-11.4806,1.6747-14.83,5.8211h-.1584c-1.6747-3.4286-6.0589-4.8625-9.966-4.8625a10.0375,10.0375,0,0,0-3.5079.5577l.4785,10.362a3.6586,3.6586,0,0,1,.7985-.0792c1.754,0,3.5015,1.5163,3.5015,5.5819v39.7992a6.0564,6.0564,0,0,0,12.1127.021h.01V92.0047h.16A16.2138,16.2138,0,0,0,589.82,96.39a14.14,14.14,0,0,0,4.1464.3993c9.9643-.4785,17.9371-9.2482,17.9371-20.81,0-11.9576-8.53-20.8873-18.8941-20.8873M589.82,86.0267a10.36,10.36,0,0,1-8.372-4.4649V70.2412a10.1017,10.1017,0,0,1,8.372-4.3049,10.0465,10.0465,0,0,1,0,20.09"/><path class="cls-37" d="M642.7353,55.2526a20.0154,20.0154,0,0,0-4.8627.3185,14.5054,14.5054,0,0,0-8.2136,4.9433h-.16V37.7132H617.383V95.9118h12.116V70.32a8.8649,8.8649,0,0,1,7.9728-4.3841c4.945,0,7.4942,3.8264,7.4942,9.6459v20.33h12.1192V76.7785a43.9466,43.9466,0,0,0-.4784-6.6974c-1.1946-8.6905-5.82-14.35-13.8715-14.8285"/><path class="cls-37" d="M687.3182,55.093c-5.0243,0-10.0468,2.2325-12.1984,6.9366h-.1618l-.2375-5.98h-11.24V95.9123h12.1176V70.3208a8.8552,8.8552,0,0,1,7.9711-4.3857c4.9433,0,7.4943,3.8264,7.4943,9.6476v20.33h12.1192v-20.33c0-12.2776-5.3427-20.49-15.8647-20.49"/><path class="cls-37" d="M572.1888,163.0744h1.6456l2.6753,9.953h-1.2818l-.7129-2.732h-3.1781l-.7372,2.732h-1.2835Zm-.6,6.2171h2.6753l-1.2674-4.8091H572.97Z"/><path class="cls-37" d="M577.4158,165.5564h1.1153v.8762h.026a2.0013,2.0013,0,0,1,1.8136-1.0718c1.9657,0,1.9657,1.4921,1.9657,2.37v5.2974h-1.17V167.87c0-.5707-.0436-1.505-1.1025-1.505a1.4413,1.4413,0,0,0-1.4774,1.505v5.1583h-1.17Z"/><path class="cls-37" d="M589.2058,163.0744H590.85l2.677,9.953h-1.2818l-.7129-2.732h-3.1766l-.7388,2.732h-1.2818Zm-.6,6.2171h2.6753l-1.2674-4.8091h-.0275Z"/><path class="cls-37" d="M599.2007,173.0277h-1.1154V172.15h-.0276a1.9974,1.9974,0,0,1-1.812,1.0734c-1.9658,0-1.9658-1.492-1.9658-2.37v-5.2974h1.17v5.1568c0,.5722.042,1.5065,1.1025,1.5065a1.44,1.44,0,0,0,1.4758-1.5065v-5.1568h1.1721Z"/><path class="cls-37" d="M603.8892,167.7447c0-.9473-.2522-1.4646-1.1009-1.4646a1.0771,1.0771,0,0,0-1.2124,1.1445c0,.8778.92,1.0444,1.84,1.3531.9053.3055,1.8251.6256,1.8251,2.1047a2.1856,2.1856,0,0,1-2.41,2.3408,2.2949,2.2949,0,0,1-2.5654-2.65h1.17c0,.9069.25,1.73,1.395,1.73a1.1733,1.1733,0,0,0,1.24-1.2415c0-1.0038-.92-1.2139-1.8251-1.5195-.9068-.3071-1.8412-.5706-1.8412-2.1177,0-1.395,1.0879-2.0643,2.3844-2.0643,2.1742,0,2.2582,1.5066,2.2713,2.3844Z"/><path class="cls-37" d="M606.7962,163.3807h1.1719v2.1758h1.2965v.92h-1.2965v4.7947c0,.5981.1536.8374.7663.8374a3.7667,3.7667,0,0,0,.5156-.042v.9618a5.1449,5.1449,0,0,1-.9473.0824c-1.214,0-1.5065-.5011-1.5065-1.4775v-5.1568H605.71v-.92h1.0864Z"/><path class="cls-37" d="M610.0966,165.5564h1.17v1.1154h.0275c.3362-.7113.7808-1.311,1.6181-1.311a1.1823,1.1823,0,0,1,.5157.0841v1.1428a3.1825,3.1825,0,0,0-.6272-.0549,1.6579,1.6579,0,0,0-1.5341,1.7685v4.7267h-1.17Z"/><path class="cls-37" d="M614.12,167.8138c0-1.7006.7243-2.4524,2.5089-2.4524,2.2729,0,2.2729,1.366,2.2729,2.1468v4.1674c0,.3056,0,.5981.3621.5981a.42.42,0,0,0,.278-.0678v.8357a4.3856,4.3856,0,0,1-.6821.07c-.4462,0-1.004,0-1.0605-.96h-.0275a2.1174,2.1174,0,0,1-1.7976,1.0718c-1.3951,0-2.0368-.8374-2.0368-2.1743a1.9367,1.9367,0,0,1,1.408-2.0643l1.5762-.4736c.85-.2651.85-.5012.85-1.1284,0-.6967-.4171-1.1024-1.1978-1.1024a1.2771,1.2771,0,0,0-1.2836,1.4645v.07Zm3.61,1.1428c-.4332.4607-1.463.5577-1.9932.8778a1.194,1.194,0,0,0-.5723,1.1865c0,.7534.2651,1.282,1.0605,1.282a1.5214,1.5214,0,0,0,1.505-1.421Z"/><rect class="cls-37" x="620.5005" y="163.0746" width="1.1704" height="9.9531"/><path class="cls-37" d="M623.1451,163.0746h1.172v1.3369h-1.172Zm0,2.4814h1.172v7.4717h-1.172Z"/><path class="cls-37" d="M625.6318,167.8138c0-1.7006.7242-2.4524,2.5088-2.4524,2.2729,0,2.2729,1.366,2.2729,2.1468v4.1674c0,.3056,0,.5981.3621.5981a.4207.4207,0,0,0,.2781-.0678v.8357a4.3644,4.3644,0,0,1-.6822.07c-.4462,0-1.0039,0-1.06-.96h-.0275a2.1173,2.1173,0,0,1-1.7976,1.0718c-1.395,0-2.0352-.8374-2.0352-2.1743a1.9351,1.9351,0,0,1,1.408-2.0643l1.5746-.4736c.85-.2651.85-.5012.85-1.1284,0-.6967-.4171-1.1024-1.1978-1.1024a1.2771,1.2771,0,0,0-1.2836,1.4645v.07Zm3.61,1.1428c-.4317.4607-1.4631.5577-1.9933.8778a1.1959,1.1959,0,0,0-.5707,1.1865c0,.7534.2636,1.282,1.0589,1.282a1.52,1.52,0,0,0,1.5051-1.421Z"/><path class="cls-37" d="M631.9763,165.5564h1.1153v.8762h.0275a2.0009,2.0009,0,0,1,1.8121-1.0718c1.9674,0,1.9674,1.4921,1.9674,2.37v5.2974H635.725V167.87c0-.5707-.0405-1.505-1.0993-1.505a1.4406,1.4406,0,0,0-1.4775,1.505v5.1583h-1.1719Z"/><path class="cls-37" d="M646.5406,165.8341c-.055-1.0459-.4461-1.9511-1.6585-1.9511-1.7006,0-1.9237,1.8686-1.9237,4.1674,0,2.3019.2231,4.169,1.9237,4.169s1.8266-2.0352,1.8266-3.3591h-1.9673v-1.0039h3.0811v5.1713h-.92v-1.3531h-.0275a2.21,2.21,0,0,1-2.1468,1.5487c-2.5929,0-3.052-2.4959-3.052-5.1729,0-2.5089.4591-5.1713,3.2057-5.1713a2.7393,2.7393,0,0,1,2.94,2.955Z"/><path class="cls-37" d="M651.7208,165.36c2.16,0,2.69,1.8267,2.69,3.9314,0,2.1064-.5447,3.9315-2.69,3.9315-2.1613,0-2.6915-1.8251-2.6915-3.9315,0-2.1047.5447-3.9314,2.6915-3.9314m1.463,3.9314c0-1.6165-.2377-3.0115-1.4921-3.0115-1.1849,0-1.4355,1.395-1.4355,3.0115,0,1.6182.236,3.0117,1.4355,3.0117,1.2415,0,1.4921-1.3935,1.4921-3.0117"/><polygon class="cls-37" points="654.82 165.556 656.103 165.556 657.495 171.551 657.524 171.551 658.917 165.556 660.201 165.556 658.179 173.028 656.84 173.028 654.82 165.556"/><path class="cls-37" d="M661.886,169.4307c0,1.1429,0,2.8726,1.4355,2.8726,1.1154,0,1.269-1.17,1.269-1.73h1.172a2.53,2.53,0,0,1-2.5105,2.65c-1.8267,0-2.5929-1.269-2.5929-3.8344,0-1.8672.3621-4.0285,2.6624-4.0285,2.2858,0,2.4944,1.9932,2.4944,3.5968v.4736Zm2.7045-.92v-.4041c0-.8358-.2651-1.8267-1.2964-1.8267-1.2286,0-1.3661,1.5066-1.3661,1.9528v.278Z"/><path class="cls-37" d="M667.0026,165.5564h1.17v1.1154H668.2c.3347-.7113.7824-1.311,1.6181-1.311a1.165,1.165,0,0,1,.5142.0841v1.1428a3.1441,3.1441,0,0,0-.6256-.0549,1.6589,1.6589,0,0,0-1.5341,1.7685v4.7267h-1.17Z"/><path class="cls-37" d="M671.1734,165.5564h1.1153v.8762h.0276a1.999,1.999,0,0,1,1.8121-1.0718c1.9657,0,1.9657,1.4921,1.9657,2.37v5.2974h-1.172V167.87c0-.5707-.04-1.505-1.1009-1.505a1.4413,1.4413,0,0,0-1.4774,1.505v5.1583h-1.17Z"/><path class="cls-37" d="M677.56,165.5564h1.1153v.8762h.0291a1.9983,1.9983,0,0,1,1.8105-1.0718,1.4673,1.4673,0,0,1,1.6182,1.1833,2.0752,2.0752,0,0,1,1.77-1.1833c1.9657,0,1.9657,1.4921,1.9657,2.37v5.2974h-1.17V167.87c0-.5707-.042-1.505-1.0055-1.505a1.3732,1.3732,0,0,0-1.3934,1.505v5.1583h-1.17V167.87c0-.5707-.042-1.505-1.0038-1.505a1.3732,1.3732,0,0,0-1.3935,1.505v5.1583H677.56Z"/><path class="cls-37" d="M688.35,169.4307c0,1.1429,0,2.8726,1.4354,2.8726,1.1155,0,1.2691-1.17,1.2691-1.73h1.1719a2.5294,2.5294,0,0,1-2.51,2.65c-1.8267,0-2.593-1.269-2.593-3.8344,0-1.8672.3621-4.0285,2.6624-4.0285,2.2858,0,2.496,1.9932,2.496,3.5968v.4736Zm2.7045-.92v-.4041c0-.8358-.2668-1.8267-1.2965-1.8267-1.2286,0-1.366,1.5066-1.366,1.9528v.278Z"/><path class="cls-37" d="M693.4662,165.5564h1.1153v.8762h.0275a2.0009,2.0009,0,0,1,1.8121-1.0718c1.9674,0,1.9674,1.4921,1.9674,2.37v5.2974h-1.172V167.87c0-.5707-.0421-1.505-1.1009-1.505a1.4405,1.4405,0,0,0-1.4775,1.505v5.1583h-1.1719Z"/><path class="cls-37" d="M700.2675,163.3807h1.17v2.1758h1.2963v.92h-1.2963v4.7947c0,.5981.1535.8374.7678.8374a3.7667,3.7667,0,0,0,.5156-.042v.9618a5.1679,5.1679,0,0,1-.9489.0824c-1.2124,0-1.5049-.5011-1.5049-1.4775v-5.1568h-1.0864v-.92h1.0864Z"/><rect class="cls-37" x="706.9142" y="163.0746" width="1.2269" height="9.9531"/><path class="cls-37" d="M709.7232,165.5564h1.1153v.8762h.0276a2.0008,2.0008,0,0,1,1.8121-1.0718c1.9657,0,1.9657,1.4921,1.9657,2.37v5.2974h-1.172V167.87c0-.5707-.04-1.505-1.1009-1.505a1.44,1.44,0,0,0-1.4758,1.505v5.1583h-1.172Z"/><path class="cls-37" d="M716.0848,163.0746h1.172v1.3369h-1.172Zm0,2.4814h1.172v7.4717h-1.172Z"/><path class="cls-37" d="M719.2069,163.3807h1.17v2.1758h1.2963v.92h-1.2963v4.7947c0,.5981.1535.8374.7678.8374a3.7667,3.7667,0,0,0,.5156-.042v.9618a5.1679,5.1679,0,0,1-.9489.0824c-1.2124,0-1.5049-.5011-1.5049-1.4775v-5.1568h-1.0864v-.92h1.0864Z"/><path class="cls-37" d="M722.538,163.0746h1.17v1.3369h-1.17Zm0,2.4814h1.17v7.4717h-1.17Z"/><path class="cls-37" d="M725.0223,167.8138c0-1.7006.7258-2.4524,2.51-2.4524,2.2729,0,2.2729,1.366,2.2729,2.1468v4.1674c0,.3056,0,.5981.3621.5981a.42.42,0,0,0,.278-.0678v.8357a4.3905,4.3905,0,0,1-.6838.07c-.4445,0-1.0039,0-1.0588-.96h-.0276a2.1193,2.1193,0,0,1-1.7976,1.0718c-1.395,0-2.0367-.8374-2.0367-2.1743a1.9362,1.9362,0,0,1,1.4095-2.0643l1.5746-.4736c.85-.2651.85-.5012.85-1.1284,0-.6967-.4186-1.1024-1.1993-1.1024a1.2767,1.2767,0,0,0-1.282,1.4645v.07Zm3.6114,1.1428c-.4332.4607-1.463.5577-1.9932.8778a1.194,1.194,0,0,0-.5723,1.1865c0,.7534.2651,1.282,1.06,1.282a1.5214,1.5214,0,0,0,1.505-1.421Z"/><path class="cls-37" d="M731.723,163.3807h1.172v2.1758h1.2964v.92H732.895v4.7947c0,.5981.1535.8374.7662.8374a3.7652,3.7652,0,0,0,.5156-.042v.9618a5.1435,5.1435,0,0,1-.9472.0824c-1.214,0-1.5066-.5011-1.5066-1.4775v-5.1568h-1.0864v-.92h1.0864Z"/><path class="cls-37" d="M735.0533,163.0746h1.1719v1.3369h-1.1719Zm0,2.4814h1.1719v7.4717h-1.1719Z"/><polygon class="cls-37" points="737.149 165.556 738.432 165.556 739.826 171.551 739.853 171.551 741.248 165.556 742.53 165.556 740.51 173.028 739.171 173.028 737.149 165.556"/><path class="cls-37" d="M744.2155,169.4307c0,1.1429,0,2.8726,1.4355,2.8726,1.1154,0,1.269-1.17,1.269-1.73h1.172a2.5284,2.5284,0,0,1-2.51,2.65c-1.8251,0-2.5929-1.269-2.5929-3.8344,0-1.8672.3637-4.0285,2.6624-4.0285,2.2874,0,2.4959,1.9932,2.4959,3.5968v.4736Zm2.7045-.92v-.4041c0-.8358-.2651-1.8267-1.2964-1.8267-1.2271,0-1.3661,1.5066-1.3661,1.9528v.278Z"/><rect class="cls-37" x="569.2303" y="153.9412" width="178.5791" height="0.6191"/><rect class="cls-36" x="532.9592" y="56.4067" width="2.5785" height="116.6206"/><path class="cls-36" d="M160.7316,89.3624l6.1213-20.0486a.1824.1824,0,0,1,.3431-.0005l6.1213,20.0491h6.0381L189.48,55.9178h-6.9486L176.2169,76.5a.1794.1794,0,0,1-.344-.0025l-6.0242-20.5795h-5.6l-6.0246,20.58a.1795.1795,0,0,1-.344.002l-6.3142-20.582h-6.9972l10.1248,33.4446Z"/><path class="cls-36" d="M206.4333,55.9178H200.03L186.21,89.3624h7.5641l2.2341-5.5614a.18.18,0,0,1,.1668-.1132H210.288a.1794.1794,0,0,1,.1662.1122l2.2346,5.5624h7.5641Zm1.869,22.0859a.1794.1794,0,0,1-.1483.0786h-9.8452a.1787.1787,0,0,1-.1488-.08.1751.1751,0,0,1-.0165-.1688l4.9459-12.2691a.1866.1866,0,0,1,.3326-.0005l4.8988,12.2716A.1779.1779,0,0,1,208.3023,78.0037Z"/><path class="cls-36" d="M247.204,78.45a10.9712,10.9712,0,0,0,7.7829-3.2,10.5087,10.5087,0,0,0,3.435-8.0659,10.3721,10.3721,0,0,0-3.5276-8.1586,11.3417,11.3417,0,0,0-7.69-3.1075H233.1249V89.3624h7.1094V78.63a.18.18,0,0,1,.18-.18Zm-6.97-6.61V62.5279a.18.18,0,0,1,.18-.18h6.3537a4.9764,4.9764,0,0,1,3.0694,1.1539,4.4248,4.4248,0,0,1,1.4753,3.6819,4.483,4.483,0,0,1-1.4753,3.73,4.9353,4.9353,0,0,1-3.0694,1.1058h-6.3537A.18.18,0,0,1,240.2343,71.84Z"/><path class="cls-36" d="M269.1881,68.518a.18.18,0,0,1-.3435-.0731V65.2783h-6.867V89.3624h6.867V77.6111c0-4.0906,2.515-6.533,6.7273-6.533a12.6031,12.6031,0,0,1,2.245.2048V64.8692a15.0089,15.0089,0,0,0-1.7117-.1247C272.7909,64.7445,270.27,66.12,269.1881,68.518Z"/><path class="cls-36" d="M289.3111,65.2783h-6.867V83.0918c0,4.5133,2.0352,6.7073,6.2224,6.7073a11.0418,11.0418,0,0,0,3.1666-.3351V83.6577a4.13,4.13,0,0,1-.6931.05c-1.282,0-1.8289-.8223-1.8289-2.75Z"/><path class="cls-36" d="M285.8535,62.8329a3.9183,3.9183,0,1,0-3.9428-3.8937A3.8766,3.8766,0,0,0,285.8535,62.8329Z"/><path class="cls-36" d="M310.6662,89.3624h6.867V75.8167c0-2.9612,1.7493-5.03,4.2538-5.03,2.39,0,3.8171,1.79,3.8171,4.7872V89.3624h6.867V74.7014c0-6.3276-3.0985-9.9569-8.5016-9.9569-3.9749,0-6.6627,1.273-7.9893,3.7845a.1677.1677,0,0,1-.1778.0942.1787.1787,0,0,1-.1452-.1062c-1.0863-2.5035-3.2667-3.7725-6.48-3.7725-2.846,0-5.2754,1.3662-6.1884,3.48a.1732.1732,0,0,1-.2083.1027.1767.1767,0,0,1-.1362-.1738V65.2783h-6.867V89.3624h6.867V75.8167c0-2.9142,1.7688-5.03,4.2052-5.03,2.39,0,3.8171,1.79,3.8171,4.7872Z"/><path class="cls-36" d="M362.4415,80.9579v-15.68h-6.867v3.0209a.18.18,0,0,1-.35.0565c-.7172-2.1013-3.5723-3.5141-7.1044-3.5141a11.3027,11.3027,0,0,0-8.5507,3.6288,12.4914,12.4914,0,0,0-3.3944,8.85,12.7792,12.7792,0,0,0,3.3959,8.9478,11.4157,11.4157,0,0,0,8.5492,3.5793c3.781,0,6.3817-1.1319,7.95-3.4606a.1765.1765,0,0,1,.1723-.0776.18.18,0,0,1,.1467.12,4.9256,4.9256,0,0,0,2.11,2.526,7.8207,7.8207,0,0,0,3.8792.8444,11.4485,11.4485,0,0,0,3.0694-.3421v-5.68a10.07,10.07,0,0,1-1.0326.0767C363.0134,83.8536,362.4415,83.0147,362.4415,80.9579Zm-8.3774.8569a6.4607,6.4607,0,0,1-4.6349,1.7964,6.2572,6.2572,0,0,1-4.5373-1.7964,6.1417,6.1417,0,0,1-1.85-4.4947,5.932,5.932,0,0,1,1.85-4.4461,6.1163,6.1163,0,0,1,4.5373-1.8445,6.3188,6.3188,0,0,1,4.6379,1.847,5.834,5.834,0,0,1,1.9441,4.4436A6.04,6.04,0,0,1,354.0641,81.8148Z"/><path class="cls-36" d="M385.0391,71.2829V64.8692a15.0166,15.0166,0,0,0-1.7117-.1247c-3.3143,0-5.8359,1.3757-6.9171,3.774a.18.18,0,0,1-.3435-.0736V65.2783H369.2V89.3624h6.867V77.6111c0-4.0906,2.515-6.533,6.7272-6.533A12.6034,12.6034,0,0,1,385.0391,71.2829Z"/><path class="cls-36" d="M398.5264,90.7671l-.3881,1.0672a2.7313,2.7313,0,0,1-1.0837,1.6382,3.7706,3.7706,0,0,1-2.1886.5659,10.5678,10.5678,0,0,1-2.7784-.3286v5.8744a13.7373,13.7373,0,0,0,3.0213.3025,9.4386,9.4386,0,0,0,6.4293-2.0888,11.2469,11.2469,0,0,0,2.7645-4.4411l10.7682-28.0785h-6.9842l-5.97,16.8545a.1794.1794,0,0,1-.1663.12h-.0055a.1855.1855,0,0,1-.1648-.1152l-6.6-16.8595h-6.9821l10.3265,25.36A.1783.1783,0,0,1,398.5264,90.7671Z"/><path class="cls-36" d="M160.1862,118.5847a.18.18,0,0,1-.18-.18V106.0236h-7.1094v33.4445h7.1094V125.1953a.18.18,0,0,1,.18-.18h14.647a.18.18,0,0,1,.18.18v14.2728h7.1094V106.0236H175.013v12.3813a.18.18,0,0,1-.18.18Z"/><path class="cls-36" d="M199.1278,114.7536a13.0361,13.0361,0,0,0-9.3815,3.49,12.0083,12.0083,0,0,0-3.6789,9.1341v.1938a11.7851,11.7851,0,0,0,3.6288,9.084,13.4568,13.4568,0,0,0,9.5768,3.3945,13.9589,13.9589,0,0,0,10.2695-4.2779l-3.9659-3.7835a8.6018,8.6018,0,0,1-5.964,2.31c-3.9053,0-6.527-1.9517-6.6782-4.9725a.18.18,0,0,1,.0485-.1322.1828.1828,0,0,1,.1308-.0566h18.31c.044-.6666.0851-1.38.0851-2.1479a11.8491,11.8491,0,0,0-3.44-8.702A12.0218,12.0218,0,0,0,199.1278,114.7536Zm5.2864,10.039H193.2108a.1794.1794,0,0,1-.1788-.1958c.2023-2.3758,2.88-4.2372,6.0958-4.2372,3.0138,0,5.4662,1.908,5.4662,4.2533A.18.18,0,0,1,204.4142,124.7926Z"/><path class="cls-36" d="M240.8958,131.0637v-15.68h-6.8669v3.0208a.18.18,0,0,1-.15.1773.19.19,0,0,1-.2-.1207c-.7172-2.1014-3.5722-3.5141-7.1044-3.5141a11.3027,11.3027,0,0,0-8.5507,3.6288,12.4912,12.4912,0,0,0-3.3944,8.85,12.7783,12.7783,0,0,0,3.3959,8.9478,11.4157,11.4157,0,0,0,8.5492,3.5792c3.7811,0,6.3817-1.1318,7.95-3.46a.1674.1674,0,0,1,.1828-.0756.1748.1748,0,0,1,.1363.1176,4.9252,4.9252,0,0,0,2.11,2.5261,7.8208,7.8208,0,0,0,3.8792.8443,11.45,11.45,0,0,0,3.07-.342v-5.68a10.0691,10.0691,0,0,1-1.0327.0766C241.4678,133.9593,240.8958,133.1205,240.8958,131.0637Zm-8.3774.8569a6.4605,6.4605,0,0,1-4.6349,1.7963,6.2569,6.2569,0,0,1-4.5372-1.7963,6.1414,6.1414,0,0,1-1.8505-4.4947,5.9318,5.9318,0,0,1,1.8505-4.4462,6.1162,6.1162,0,0,1,4.5372-1.8444,6.3188,6.3188,0,0,1,4.6379,1.8469,5.8344,5.8344,0,0,1,1.9442,4.4437A6.04,6.04,0,0,1,232.5184,131.9206Z"/><path class="cls-36" d="M253.9814,130.5784V106.0236h-6.8665v25.6706c0,5.6556,2.67,8.4045,8.1621,8.4045a13.4824,13.4824,0,0,0,3.2637-.296V133.77a7.0622,7.0622,0,0,1-1.5665.1407C254.9044,133.9107,253.9814,132.8831,253.9814,130.5784Z"/><path class="cls-36" d="M269.25,115.2043v-9.1807h-6.6727v9.1807a.18.18,0,0,1-.18.18h-3.4146v6.1879h3.4146a.18.18,0,0,1,.18.18v9.7967c0,5.6735,2.7785,8.55,8.2588,8.55a15.0153,15.0153,0,0,0,3.3608-.301V133.75a10.6279,10.6279,0,0,1-1.6631.1607c-2.3017,0-3.2838-1.0256-3.2838-3.4289v-8.73a.18.18,0,0,1,.18-.18h5.2524v-6.1879h-5.2524A.18.18,0,0,1,269.25,115.2043Z"/><path class="cls-36" d="M292.2739,114.85c-3.1671,0-5.7247,1.2971-6.6747,3.386a.18.18,0,0,1-.3436-.0737V106.0236h-6.8669v33.4445h6.8669V125.9225c0-2.9613,1.9286-5.03,4.69-5.03,2.7243,0,4.3509,1.79,4.3509,4.7872v13.788h6.867V124.8072C301.1636,118.48,297.9234,114.85,292.2739,114.85Z"/><path class="cls-36" d="M325.985,106.0236l-13.82,33.4445H319.73l2.2341-5.5614a.18.18,0,0,1,.1668-.1131h14.1131a.1793.1793,0,0,1,.1662.1121l2.2346,5.5624h7.5641l-13.82-33.4445Zm8.2728,22.0859a.18.18,0,0,1-.1483.0786h-9.8452a.1789.1789,0,0,1-.1488-.08.1751.1751,0,0,1-.0165-.1688l4.9459-12.2692a.1868.1868,0,0,1,.3326-.0005l4.8988,12.2717A.1779.1779,0,0,1,334.2578,128.11Z"/><path class="cls-36" d="M355.8043,130.5784V106.0236h-6.8665v25.6706c0,5.6556,2.67,8.4045,8.162,8.4045a13.4833,13.4833,0,0,0,3.2638-.296V133.77a7.0629,7.0629,0,0,1-1.5665.1407C356.7272,133.9107,355.8043,132.8831,355.8043,130.5784Z"/><path class="cls-36" d="M371.1306,130.5784V106.0236h-6.8665v25.6706c0,5.6556,2.67,8.4045,8.162,8.4045a13.4827,13.4827,0,0,0,3.2638-.296V133.77a7.0629,7.0629,0,0,1-1.5665.1407C372.0536,133.9107,371.1306,132.8831,371.1306,130.5784Z"/><path class="cls-36" d="M386.5535,131.0637v-15.68h-6.867v17.8135c0,4.5132,2.0353,6.7072,6.2225,6.7072a11.043,11.043,0,0,0,3.1666-.335v-5.8063a4.13,4.13,0,0,1-.6931.05C387.1,133.8136,386.5535,132.9913,386.5535,131.0637Z"/><path class="cls-36" d="M383.4892,112.9387a3.9184,3.9184,0,1,0-3.9428-3.8938A3.8766,3.8766,0,0,0,383.4892,112.9387Z"/><path class="cls-36" d="M418.0256,131.0637v-15.68h-6.868v3.0208a.18.18,0,0,1-.1482.1773c-.1132-.0015-.1743-.04-.2013-.1192-.7162-2.1029-3.5708-3.5156-7.1044-3.5156a11.3023,11.3023,0,0,0-8.5507,3.6288,12.4912,12.4912,0,0,0-3.3944,8.85,12.7783,12.7783,0,0,0,3.3959,8.9478,11.4156,11.4156,0,0,0,8.5492,3.5792c3.782,0,6.3832-1.1318,7.95-3.46a.1816.1816,0,0,1,.1773-.0771.1789.1789,0,0,1,.1422.1206,4.9274,4.9274,0,0,0,2.11,2.5246,7.8182,7.8182,0,0,0,3.8792.8443,11.4478,11.4478,0,0,0,3.07-.342v-5.68a10.0974,10.0974,0,0,1-1.0326.0766C418.5975,133.9593,418.0256,133.1205,418.0256,131.0637Zm-8.3774.8569a6.4627,6.4627,0,0,1-4.6354,1.7963,6.2571,6.2571,0,0,1-4.5373-1.7963,6.1413,6.1413,0,0,1-1.85-4.4947,5.9317,5.9317,0,0,1,1.85-4.4462,6.1166,6.1166,0,0,1,4.5373-1.8444,6.3187,6.3187,0,0,1,4.6374,1.8469,5.8328,5.8328,0,0,1,1.9441,4.4437A6.0357,6.0357,0,0,1,409.6482,131.9206Z"/><path class="cls-36" d="M439.2083,114.85c-3.2212,0-5.9566,1.3687-6.9682,3.4866a.1864.1864,0,0,1-.1943.0992.18.18,0,0,1-.1462-.1763v-2.8756h-6.868v24.084H431.9V125.9225a4.8408,4.8408,0,0,1,4.98-5.03c2.9067,0,4.6415,1.79,4.6415,4.7872v13.788h6.868V124.8072C448.389,118.48,445.0426,114.85,439.2083,114.85Z"/><path class="cls-36" d="M475.495,118.9808a13.0582,13.0582,0,0,0-9.9369-4.373,13.3566,13.3566,0,0,0-9.4791,3.6854,12.7019,12.7019,0,0,0,.001,18.17,13.3416,13.3416,0,0,0,9.4781,3.6359,13.0592,13.0592,0,0,0,9.9369-4.3725l-4.3068-4.2619a7.5478,7.5478,0,0,1-5.63,2.4464,6.5587,6.5587,0,0,1,0-13.115,7.551,7.551,0,0,1,5.63,2.4465Z"/><path class="cls-36" d="M490.4341,114.7536a13.0326,13.0326,0,0,0-9.381,3.49,12.0072,12.0072,0,0,0-3.68,9.1341v.1938a11.7887,11.7887,0,0,0,3.63,9.084A13.4565,13.4565,0,0,0,490.58,140.05a13.9589,13.9589,0,0,0,10.2684-4.2779l-3.9653-3.7835a8.6041,8.6041,0,0,1-5.9646,2.31c-3.9053,0-6.5264-1.9517-6.6777-4.9725a.18.18,0,0,1,.0471-.1307.1836.1836,0,0,1,.1322-.0581h18.31c.0461-.7016.0862-1.3967.0862-2.1479a11.8465,11.8465,0,0,0-3.4416-8.702A12.0209,12.0209,0,0,0,490.4341,114.7536Zm5.2865,10.039H484.5177a.1815.1815,0,0,1-.1323-.0575.1868.1868,0,0,1-.047-.1338c.2013-2.38,2.88-4.2417,6.0957-4.2417,3.0139,0,5.4658,1.908,5.4658,4.2533A.18.18,0,0,1,495.7206,124.7926Z"/><path class="cls-36" d="M153.6213,172.0394V157.596h5.74a4.2209,4.2209,0,0,1,2.9217,1.057,3.3017,3.3017,0,0,1,1.202,2.6317,2.9,2.9,0,0,1-1.8443,2.9008,3.42,3.42,0,0,1,2.9013,3.5853,4.0637,4.0637,0,0,1-1.2644,3.0666,4.2811,4.2811,0,0,1-3.1289,1.202Zm3.13-8.6827h2.0927a1.4855,1.4855,0,0,0,1.5544-1.5331,1.4707,1.4707,0,0,0-1.5336-1.492h-2.1135Zm0,5.9269h2.7558a1.7733,1.7733,0,0,0,1.8651-1.7617,1.7318,1.7318,0,0,0-1.8859-1.6994h-2.735Z"/><path class="cls-36" d="M165.8878,166.7969a5.1974,5.1974,0,0,1,1.5959-3.9584,5.6375,5.6375,0,0,1,4.0613-1.5122,5.1731,5.1731,0,0,1,5.3673,5.3048c0,.3524-.0208.6839-.0416.9947h-7.895c.0624,1.2431,1.14,2.0512,2.7767,2.0512a3.5869,3.5869,0,0,0,2.549-1.0155l1.8028,1.72a6.0464,6.0464,0,0,1-4.4968,1.9066,5.8573,5.8573,0,0,1-4.1444-1.4717,5.1357,5.1357,0,0,1-1.5752-3.9371Zm7.9163-1.1812a2.0451,2.0451,0,0,0-2.2591-1.7409,2.3294,2.3294,0,0,0-2.5277,1.7409Z"/><path class="cls-36" d="M179.0194,164.3929h-1.3678v-2.7974h1.3678V157.596h3.0047v3.9995h2.3209v2.7974h-2.3209v3.73c0,.9947.3939,1.3881,1.3263,1.3881a4.8192,4.8192,0,0,0,.7873-.0826v2.735a6.3184,6.3184,0,0,1-1.5128.145q-3.6053,0-3.6055-3.73Z"/><path class="cls-36" d="M185.7331,164.3929h-1.3678v-2.7974h1.3678V157.596h3.0048v3.9995h2.3209v2.7974h-2.3209v3.73c0,.9947.3939,1.3881,1.3262,1.3881a4.8172,4.8172,0,0,0,.7873-.0826v2.735a6.3178,6.3178,0,0,1-1.5128.145q-3.6053,0-3.6055-3.73Z"/><path class="cls-36" d="M191.9648,166.7969a5.1968,5.1968,0,0,1,1.5955-3.9584,5.6381,5.6381,0,0,1,4.0613-1.5122,5.1731,5.1731,0,0,1,5.3672,5.3048c0,.3524-.0208.6839-.0416.9947h-7.8949c.0618,1.2431,1.14,2.0512,2.7766,2.0512a3.5867,3.5867,0,0,0,2.549-1.0155l1.8028,1.72a6.0464,6.0464,0,0,1-4.4968,1.9066,5.8573,5.8573,0,0,1-4.1444-1.4717,5.1357,5.1357,0,0,1-1.5747-3.9371Zm7.9158-1.1812a2.0451,2.0451,0,0,0-2.259-1.7409,2.33,2.33,0,0,0-2.5278,1.7409Z"/><path class="cls-36" d="M204.5921,172.0394V161.5955H207.68v1.43a3.1127,3.1127,0,0,1,3.0256-1.6578,6.7741,6.7741,0,0,1,.8081.0624v2.9013a5.3045,5.3045,0,0,0-1.0362-.1039,2.52,2.52,0,0,0-2.7975,2.7148v5.0975Z"/><path class="cls-36" d="M219.3666,172.0394V157.596h3.0874v5.2633a3.069,3.069,0,0,1,2.9216-1.492c2.4664,0,3.8753,1.6167,3.8753,4.331v6.3411h-3.0874v-5.968a1.7221,1.7221,0,0,0-1.7825-1.9685,1.9125,1.9125,0,0,0-1.927,2.072v5.8645Z"/><path class="cls-36" d="M230.9309,166.7969a5.1971,5.1971,0,0,1,1.5954-3.9584,5.6383,5.6383,0,0,1,4.0613-1.5122,5.1731,5.1731,0,0,1,5.3673,5.3048c0,.3524-.0208.6839-.0416.9947h-7.895c.0619,1.2431,1.14,2.0512,2.7767,2.0512a3.5869,3.5869,0,0,0,2.549-1.0155l1.8028,1.72a6.0464,6.0464,0,0,1-4.4968,1.9066,5.8573,5.8573,0,0,1-4.1444-1.4717,5.1354,5.1354,0,0,1-1.5747-3.9371Zm7.9158-1.1812a2.0451,2.0451,0,0,0-2.2591-1.7409,2.33,2.33,0,0,0-2.5277,1.7409Z"/><path class="cls-36" d="M244.4871,162.984a4.8862,4.8862,0,0,1,3.7089-1.5751c1.5751,0,2.7974.6423,3.1082,1.5543v-1.3677h3.0879v6.776c0,.8289.2074,1.1605.7666,1.1605a5.1576,5.1576,0,0,0,.5181-.0416v2.57a4.7769,4.7769,0,0,1-1.3886.1658,3.4356,3.4356,0,0,1-1.6988-.3731,2.1744,2.1744,0,0,1-.9329-1.1189,3.8423,3.8423,0,0,1-3.46,1.5128,4.9423,4.9423,0,0,1-3.7089-1.5544,5.5051,5.5051,0,0,1-1.4718-3.8752A5.4047,5.4047,0,0,1,244.4871,162.984Zm6.1956,5.6983a2.4951,2.4951,0,0,0,.8081-1.8651,2.4189,2.4189,0,0,0-.8081-1.8438,2.6081,2.6081,0,0,0-1.927-.7671,2.5472,2.5472,0,0,0-1.8859.7671,2.455,2.455,0,0,0-.7665,1.8438,2.5334,2.5334,0,0,0,.7665,1.8651,2.6118,2.6118,0,0,0,1.8859.7463A2.6749,2.6749,0,0,0,250.6827,168.6823Z"/><path class="cls-36" d="M257.0436,157.596h3.0879v10.5682c0,.9328.3518,1.347,1.2015,1.347a2.6623,2.6623,0,0,0,.7462-.0826v2.735a5.5368,5.5368,0,0,1-1.4712.145c-2.3832,0-3.5644-1.2223-3.5644-3.6674Z"/><path class="cls-36" d="M263.7781,164.3929H262.41v-2.7974h1.3678V157.596h3.0048v3.9995h2.3208v2.7974h-2.3208v3.73c0,.9947.3939,1.3881,1.3262,1.3881a4.8172,4.8172,0,0,0,.7873-.0826v2.735a6.3178,6.3178,0,0,1-1.5128.145q-3.6053,0-3.6055-3.73Z"/><path class="cls-36" d="M270.8323,172.0394V157.596H273.92v5.2633a3.0693,3.0693,0,0,1,2.9221-1.492c2.4659,0,3.8748,1.6167,3.8748,4.331v6.3411h-3.0874v-5.968a1.722,1.722,0,0,0-1.782-1.9685,1.9126,1.9126,0,0,0-1.9275,2.072v5.8645Z"/><path class="cls-36" d="M281.8968,174.6919l1.8236-4.9526h3.0671l-2.6109,4.9526Z"/><path class="cls-36" d="M292.9207,164.3929H291.553v-2.7974h1.3677V157.596h3.0048v3.9995h2.3209v2.7974h-2.3209v3.73c0,.9947.3939,1.3881,1.3262,1.3881a4.8192,4.8192,0,0,0,.7874-.0826v2.735a6.3184,6.3184,0,0,1-1.5128.145q-3.6053,0-3.6056-3.73Z"/><path class="cls-36" d="M309.4153,162.9009a5.1194,5.1194,0,0,1,1.6994,3.9163,5.195,5.195,0,0,1-1.6994,3.9376,6.1007,6.1007,0,0,1-8.227,0,5.25,5.25,0,0,1-1.678-3.9376,5.1728,5.1728,0,0,1,1.678-3.9163,6.0429,6.0429,0,0,1,8.227,0Zm-6.03,5.8646a2.7525,2.7525,0,0,0,3.8545,0,2.7074,2.7074,0,0,0,.7873-1.9483,2.6255,2.6255,0,0,0-.7873-1.927,2.7022,2.7022,0,0,0-3.8545,0,2.6255,2.6255,0,0,0-.7873,1.927A2.6733,2.6733,0,0,0,303.385,168.7655Z"/><path class="cls-36" d="M314.3407,172.8891a5.95,5.95,0,0,0,3.2116.9947,3.78,3.78,0,0,0,2.1343-.5389,2.5911,2.5911,0,0,0,.912-2.2794v-.2281a3.7242,3.7242,0,0,1-3.1913,1.2644,4.9842,4.9842,0,0,1-3.709-1.5128,5.2553,5.2553,0,0,1-1.4712-3.7718,5.4025,5.4025,0,0,1,1.4712-3.8332,4.8866,4.8866,0,0,1,3.709-1.5751c1.5751,0,2.7974.6423,3.1087,1.5543v-1.3677h3.0874v8.7035c0,2.4243-.3939,3.999-1.8235,5.0975a5.8927,5.8927,0,0,1-3.7921,1.2021,8.6789,8.6789,0,0,1-5.1183-1.4718Zm1.74-4.2479a2.613,2.613,0,0,0,1.8859.7458,2.6763,2.6763,0,0,0,1.927-.7458,2.3777,2.3777,0,0,0,.8081-1.824,2.4189,2.4189,0,0,0-.8081-1.8438,2.6083,2.6083,0,0,0-1.927-.7671,2.5472,2.5472,0,0,0-1.8859.7671,2.455,2.455,0,0,0-.7666,1.8438A2.4121,2.4121,0,0,0,316.0811,168.6412Z"/><path class="cls-36" d="M325.2983,166.7969a5.1971,5.1971,0,0,1,1.5954-3.9584,5.6381,5.6381,0,0,1,4.0613-1.5122,5.1731,5.1731,0,0,1,5.3672,5.3048c0,.3524-.0207.6839-.0415.9947h-7.895c.0619,1.2431,1.14,2.0512,2.7767,2.0512a3.5871,3.5871,0,0,0,2.549-1.0155l1.8027,1.72a6.0462,6.0462,0,0,1-4.4967,1.9066,5.8574,5.8574,0,0,1-4.1445-1.4717,5.1356,5.1356,0,0,1-1.5746-3.9371Zm7.9157-1.1812a2.045,2.045,0,0,0-2.259-1.7409,2.33,2.33,0,0,0-2.5277,1.7409Z"/><path class="cls-36" d="M338.8292,164.3929h-1.3678v-2.7974h1.3678V157.596h3.0048v3.9995h2.3208v2.7974H341.834v3.73c0,.9947.3939,1.3881,1.3262,1.3881a4.8172,4.8172,0,0,0,.7873-.0826v2.735a6.3178,6.3178,0,0,1-1.5128.145q-3.6053,0-3.6055-3.73Z"/><path class="cls-36" d="M345.8829,172.0394V157.596H348.97v5.2633a3.069,3.069,0,0,1,2.9216-1.492c2.4664,0,3.8753,1.6167,3.8753,4.331v6.3411H352.68v-5.968a1.7221,1.7221,0,0,0-1.7825-1.9685,1.9125,1.9125,0,0,0-1.927,2.072v5.8645Z"/><path class="cls-36" d="M357.4472,166.7969a5.1971,5.1971,0,0,1,1.5954-3.9584,5.6383,5.6383,0,0,1,4.0613-1.5122,5.1731,5.1731,0,0,1,5.3673,5.3048c0,.3524-.0208.6839-.0416.9947h-7.895c.0619,1.2431,1.14,2.0512,2.7767,2.0512a3.5869,3.5869,0,0,0,2.549-1.0155l1.8028,1.72a6.0464,6.0464,0,0,1-4.4968,1.9066,5.8573,5.8573,0,0,1-4.1444-1.4717,5.1354,5.1354,0,0,1-1.5747-3.9371Zm7.9158-1.1812a2.0451,2.0451,0,0,0-2.2591-1.7409,2.33,2.33,0,0,0-2.5277,1.7409Z"/><path class="cls-36" d="M370.075,172.0394V161.5955h3.0874v1.43a3.1131,3.1131,0,0,1,3.0256-1.6578,6.7741,6.7741,0,0,1,.8081.0624v2.9013a5.3048,5.3048,0,0,0-1.0363-.1039,2.52,2.52,0,0,0-2.7974,2.7148v5.0975Z"/></g></g></svg>